# xmcd
#
# Track frame offsets: 
#        150
#        16060
#        32965
#        53425
#        70467
#        83580
#        100272
#        116527
#        139190
#        165142
#        185900
#        207155
#        223722
#
# Disc length: 3355 seconds
#
# Revision: 4
# Processed by: cddbd v1.5.2PL0 Copyright (c) Steve Scherf et al.
# Submitted via: ExactAudioCopy v1.0b3
#
DISCID=ad0d190d
DTITLE=Mary Chapin Carpenter - Stones in the Road
DYEAR=1994
DGENRE=Americana
TTITLE0=Why Walk When You Can Fly
TTITLE1=House of Cards
TTITLE2=Stones in the Road
TTITLE3=A Keeper for Every Flame
TTITLE4=Tender When I Want to Be
TTITLE5=Shut Up and Kiss Me
TTITLE6=The Last Word
TTITLE7=The End of My Pirate Days
TTITLE8=John Doe No. 24
TTITLE9=Jubilee
TTITLE10=Outside Looking In
TTITLE11=Where Time Stands Still
TTITLE12=This is Love
EXTD=YEAR: 1994
EXTT0=
EXTT1=
EXTT2=
EXTT3=
EXTT4=
EXTT5=
EXTT6=
EXTT7=
EXTT8=
EXTT9=
EXTT10=
EXTT11=
EXTT12=
PLAYORDER=
